<svg xmlns="http://www.w3.org/2000/svg" viewBox="0 0 64.45 22.51"><defs><style>.cls-1{fill:#a5cbdc;}.cls-2{fill:#231f20;}</style></defs><title>Asset 25</title><g id="Layer_2" data-name="Layer 2"><g id="Layer_1-2" data-name="Layer 1"><path class="cls-1" d="M.9.27H3.6l2.2,6.1c.3.9.82,2.38,1.1,3.33H7c.27-.9,1-2.83,1.42-4.15l2-5.28h2.73l.85,12.1H11.8L11.52,6.6c-.07-1.3-.17-2.85-.22-4.33h-.08c-.32,1.1-.65,2.08-1.32,3.93L7.57,12.3H6l-2.15-6c-.37-1.15-.9-2.9-1.2-4h-.1c0,1.42-.12,3-.2,4.35L2,12.37H0Z"/><path class="cls-1" d="M18,6.72c.05,3,2,4.2,4.15,4.2a7.93,7.93,0,0,0,3.35-.62l.38,1.57a9.83,9.83,0,0,1-4,.75c-3.72,0-5.94-2.45-5.94-6.1S18,0,21.55,0c3.95,0,5,3.47,5,5.7a7.09,7.09,0,0,1-.08,1Zm6.45-1.57c0-1.4-.57-3.58-3.05-3.58-2.22,0-3.2,2.05-3.37,3.58Z"/><path class="cls-1" d="M37.35.27V2H33.57V12.37H31.4V2H27.62V.27Z"/><path class="cls-1" d="M39.27,4.22c0-1.55-.05-2.8-.1-3.95h2l.1,2.08h0A4.76,4.76,0,0,1,45.6,0c2.92,0,5.12,2.47,5.12,6.15,0,4.35-2.65,6.5-5.5,6.5a4.23,4.23,0,0,1-3.72-1.9h0v6.57H39.27Zm2.18,3.23a5.06,5.06,0,0,0,.1.9,3.39,3.39,0,0,0,3.3,2.57c2.32,0,3.67-1.9,3.67-4.67,0-2.43-1.27-4.5-3.6-4.5A3.5,3.5,0,0,0,41.6,4.47a3.39,3.39,0,0,0-.15.9Z"/><path class="cls-1" d="M64.45,6.22c0,4.48-3.1,6.43-6,6.43-3.27,0-5.8-2.4-5.8-6.23,0-4,2.65-6.42,6-6.42S64.45,2.52,64.45,6.22Zm-9.6.13C54.85,9,56.37,11,58.52,11S62.2,9,62.2,6.3c0-2-1-4.65-3.63-4.65S54.85,4.05,54.85,6.35Z"/><path class="cls-2" d="M20.92,18c.63-.22,1.28-.46,1.91-.72l.06.15a45.72,45.72,0,0,1-4.17,3.23.68.68,0,0,1-.36.45l-.87-2c.4-.1,1-.3,1.78-.54v-5H17.82l-.12-.42h1.57V8.8L21.48,9c0,.21-.14.36-.56.42v3.7H21l.75-1.27a17.88,17.88,0,0,1,1.29,1.45.36.36,0,0,1-.38.24H20.92Zm10.17,2.16c.56.2.74.41.74.72,0,.84-.8,1.14-4.14,1.14H25.62c-1.83,0-2.49-.31-2.49-1.78V14.48L21.66,15l-.29-.36L23.13,14V9.73l2.22.24c0,.19-.17.36-.54.42v3l1.32-.48V8.5l2.16.22c0,.21-.14.36-.54.42v3.2L29,11.89l.15-.05h0L30,11l1.53,1.26a.93.93,0,0,1-.59.27c0,4-.18,5.07-.81,5.61a2.19,2.19,0,0,1-1.56.51,2.22,2.22,0,0,0-.16-1.12,1,1,0,0,0-.63-.45V19c0,.17-.71.5-1.32.5h-.3V13.39l-1.32.48v5.91c0,.45.22.58,1,.58h2c.75,0,1.36,0,1.68,0a.74.74,0,0,0,.55-.23,9.51,9.51,0,0,0,.8-2.07H31ZM27.75,12.8v4.05c.22,0,.58,0,.78,0a.45.45,0,0,0,.37-.12c.24-.25.33-1.41.36-4.51Z"/><path class="cls-2" d="M38.58,18.55c-.51.61-1.52,1.84-2.78,3.15a1.26,1.26,0,0,1-.36.51l-1.33-1.68c.55-.39.64-.53.64-.84v-3H32.82l-.12-.42h2V13.73H33.69l-.08-.28a12.35,12.35,0,0,1-1.06,1l-.15-.1a20.21,20.21,0,0,0,2-5.9l2.29.72c0,.18-.19.32-.6.33a9.14,9.14,0,0,1-.63,1.31h1l.78-1.08s.88.75,1.41,1.26a.37.37,0,0,1-.39.24h-3a13.9,13.9,0,0,1-1.53,2.08H36.1l.78-1.11s.87.78,1.4,1.29c0,.17-.18.24-.39.24H36.4v2.58l.78-1.09s.87.75,1.38,1.27c0,.17-.19.24-.4.24H36.4v2.76c.65-.33,1.37-.72,2.09-1.11Zm4.59-2.3A6.39,6.39,0,0,0,47,20.71l0,.19a1.53,1.53,0,0,0-1.32,1.55c-1.83-1.38-2.5-4.17-2.74-6.2h0C42.31,19,41,21,37.53,22.51l-.15-.23a8.31,8.31,0,0,0,3.88-6H38.49l-.12-.43h3a29.29,29.29,0,0,0,.21-3.26H40a7.94,7.94,0,0,1-1.71,2.24l-.21-.11a17.82,17.82,0,0,0,1.25-5l2.1.49c-.06.2-.23.33-.57.35a17.29,17.29,0,0,1-.65,1.63h1.34c0-1.14,0-2.34,0-3.66l2.23.21c0,.23-.18.38-.54.44,0,1,0,2.07,0,3h.63L44.71,11s1,.8,1.61,1.35c0,.17-.21.24-.42.24H43.2a26.6,26.6,0,0,1-.26,3.26h1.38l.89-1.16s1,.78,1.62,1.35c0,.17-.2.24-.41.24Z"/></g></g></svg>