<svg xmlns="http://www.w3.org/2000/svg" viewBox="0 0 122.4 25.66"><defs><style>.cls-1{fill:#f4b4bf;}.cls-2{fill:#231f20;}</style></defs><title>Asset 26</title><g id="Layer_2" data-name="Layer 2"><g id="Layer_1-2" data-name="Layer 1"><path class="cls-1" d="M2.17.18v7h8.15v-7h2.2V17h-2.2V9.12H2.17V17H0V.18Z"/><path class="cls-1" d="M17.45,11.37c.05,3,1.95,4.2,4.15,4.2A8,8,0,0,0,25,15l.37,1.57a9.77,9.77,0,0,1-4,.75c-3.73,0-6-2.45-6-6.1S17.5,4.65,21,4.65c3.95,0,5,3.47,5,5.7a9.49,9.49,0,0,1-.07,1ZM23.9,9.8c0-1.4-.58-3.58-3-3.58-2.23,0-3.2,2.05-3.38,3.58Z"/><path class="cls-1" d="M28.7,5.07a25.82,25.82,0,0,1,3.85-.27c2,0,5.37.32,5.37,3a2.87,2.87,0,0,1-2.52,2.73v0c1.77.25,3.07,1.25,3.07,3,0,3.17-4,3.57-6.37,3.57-1.35,0-2.75-.1-3.4-.15Zm2.07,10.5a12.65,12.65,0,0,0,1.78.1c1.47,0,3.67-.35,3.67-2.1s-1.75-2.12-3.85-2.12h-1.6Zm0-5.57h1.65c1.62,0,3.3-.48,3.3-1.9,0-1.2-1-1.78-3.25-1.78a15.41,15.41,0,0,0-1.7.1Z"/><path class="cls-1" d="M49.87,16.57a8.08,8.08,0,0,1-3.47.7c-3.65,0-6-2.47-6-6.17a6.14,6.14,0,0,1,6.49-6.43,7.34,7.34,0,0,1,3.05.63L49.42,7a5.08,5.08,0,0,0-2.55-.58C44.1,6.42,42.6,8.47,42.6,11c0,2.8,1.8,4.52,4.2,4.52a6.2,6.2,0,0,0,2.7-.6Z"/><path class="cls-1" d="M54.62,4.92v5.25h.53L59.7,4.92h2.67L57.1,10.4c1.95.2,3.12,1.5,4.07,3.67A26,26,0,0,0,62.47,17h-2.3a15.83,15.83,0,0,1-1.12-2.47c-.83-2-1.95-2.85-4-2.85h-.43V17H52.45V4.92Z"/><path class="cls-1" d="M66.45,4.92V10c0,1.93,0,3.13-.13,4.85l.08,0c.72-1.48,1.15-2.33,1.95-3.73l3.77-6.25H74.7V17H72.6V11.9c0-2,.05-3,.15-4.95h-.08c-.77,1.55-1.3,2.52-2,3.75C69.52,12.57,68.2,14.9,66.9,17H64.37V4.92Z"/><path class="cls-1" d="M80.3,4.92V10c0,1.93,0,3.13-.13,4.85l.08,0c.72-1.48,1.15-2.33,2-3.73L86,4.92h2.58V17h-2.1V11.9c0-2,0-3,.15-4.95h-.08c-.77,1.55-1.3,2.52-2,3.75-1.15,1.87-2.47,4.2-3.77,6.32H78.22V4.92ZM81.72,0c.08,1.07.6,1.9,1.6,1.9S84.9,1.1,85,0H86.6a3,3,0,0,1-3.33,3.1c-2.2,0-3-1.38-3.15-3.1Z"/><path class="cls-1" d="M107.37,4.92V17h-2.2V6.67H99.55V17H97.37V4.92Z"/><path class="cls-1" d="M111,8.87c0-1.55,0-2.8-.1-3.95h2l.1,2.08h0a4.75,4.75,0,0,1,4.3-2.35c2.93,0,5.13,2.47,5.13,6.15,0,4.35-2.65,6.5-5.5,6.5a4.26,4.26,0,0,1-3.73-1.9h0V22H111Zm2.17,3.23a5.06,5.06,0,0,0,.1.9,3.4,3.4,0,0,0,3.3,2.57c2.33,0,3.68-1.9,3.68-4.67,0-2.43-1.28-4.5-3.6-4.5a3.52,3.52,0,0,0-3.33,2.72,3.85,3.85,0,0,0-.15.9Z"/><path class="cls-2" d="M31.19,15.16c4,.25,2.68,3.22,1.15,2.2a4.45,4.45,0,0,0-1.27-2.11Zm4.68-.83c-.6,1.82-1.68,5.21-1.88,6a6.57,6.57,0,0,0-.24,1.42c0,.8.65,1.31.59,2.63a1.2,1.2,0,0,1-1.26,1.24c-.35,0-.69-.21-.8-.78.27-1.54.21-2.91-.15-3.13a1.36,1.36,0,0,0-.78-.24v-.3H32c.23,0,.29,0,.45-.32.33-.57.33-.57,3.15-6.6ZM32.15,11.8c4.09.19,2.94,3.24,1.33,2.31A5.51,5.51,0,0,0,32,11.9ZM43.83,23.27s1.08.89,1.71,1.49c0,.16-.19.24-.42.24h-10L35,24.56h4.23v-3H35.94l-.12-.42h3.44V18.58l2.28.18c0,.22-.17.37-.56.43v1.92h1.34l.93-1.26s1,.86,1.66,1.44c0,.17-.19.24-.4.24H41v3H42.9Zm-5.91-4.68c0,.11-.49.39-1.35.39H36.3V11.9l1.79.69h4.29l.81-.93,1.53,1.2c-.09.14-.24.23-.57.29v5.23a2.06,2.06,0,0,1-1.41.38h-.3V17.9H37.92Zm0-5.56v2h4.52V13Zm4.52,4.45v-2H37.92v2Z"/><path class="cls-2" d="M59.61,23.36c.6.21.72.33.72.69,0,.72-.57,1.16-2.14,1.16H56.72c-1.53,0-2-.53-2-1.79,0-1,.12-2.77.36-6.94h-4c-.39,2.43-.81,5.19-1.12,6.72l4-.92.05.17c-1.07.64-3,1.71-5.4,2.88a1.07,1.07,0,0,1-.21.25l-1.17-1.84a2.27,2.27,0,0,0,1-1.38c.27-1,1.16-6.63,1.49-9H46.47l-.12-.42H57.18l1-1.35s1.22.91,2,1.53c0,.16-.21.24-.43.24H51.56c-.12.75-.27,1.69-.44,2.73h3.81l.72-.95,1.76,1.31a.94.94,0,0,1-.62.25c-.25,3.95-.39,6-.37,6.57,0,.3.12.35.52.35h1.29c.45,0,.57,0,.68-.18a11.58,11.58,0,0,0,.57-1.77h.16Zm-8.17-5.65c4.12,1.27,2.44,4.39.93,3a6,6,0,0,0-1.07-3Z"/><path class="cls-2" d="M68.91,16.52c.53,2.78,2.27,5.54,6.47,7.23l0,.17a1.86,1.86,0,0,0-1.62,1.74c-3.5-2.13-4.62-5.78-5-8.78-.45,3.57-2,6.63-7.39,8.78l-.14-.23a10.61,10.61,0,0,0,5.67-8.91H61.43l-.12-.43h5.56c.11-1.41.09-2.91.09-4.47l2.52.24c0,.22-.18.37-.54.43,0,1.31,0,2.58-.15,3.8h3.38l1.11-1.37s1.21.92,2,1.56c0,.17-.21.24-.43.24Z"/><path class="cls-2" d="M79.83,17.89a.52.52,0,0,1-.46.28v6.89a1.77,1.77,0,0,1-1.4.58h-.31V18.79c-.5.46-1,.91-1.55,1.32L76,20a25.6,25.6,0,0,0,2.7-5.43l2.13,1.13c-.09.15-.22.25-.58.21-.38.49-.83,1.06-1.35,1.65Zm.84-5.18c-.07.17-.21.24-.57.18a16.34,16.34,0,0,1-3.87,3l-.15-.15a17.41,17.41,0,0,0,2.58-4.16Zm5.91,9.17c-1.17.57-2.86,1.35-5.43,2.37a.68.68,0,0,1-.42.36l-1-1.94c.52,0,1.33-.15,2.34-.3V20.29H80.24l-.12-.44h1.95V17.66l2.19.18c0,.2-.12.33-.5.39v1.62h.42L85,18.77s.9.74,1.44,1.28c0,.16-.18.24-.39.24H83.76v1.84l2.79-.43Zm2.24-6.66s1,.84,1.62,1.41a.4.4,0,0,1-.42.24H89v6.58c0,1.19-.3,2-2.32,2.16a1.91,1.91,0,0,0-.39-1.24,2.4,2.4,0,0,0-1.49-.6v-.2s1.79.11,2.16.11.33-.09.33-.27V16.87H86.16c.15.13.29.25.41.37,0,.17-.2.24-.41.24H80l-.12-.43h2.25V14.68H80.25l-.12-.42h2V11.9l2.16.2c0,.19-.12.33-.48.39v1.77h.35l.78-1.07s.88.74,1.42,1.25c0,.16-.19.24-.4.24H83.76v2.37h.53L85.1,16l.57.48H87.9Zm-2.9-1.68-.12-.42h1.92l.87-1.19s1,.81,1.56,1.37c0,.16-.19.24-.42.24Z"/></g></g></svg>