<svg xmlns="http://www.w3.org/2000/svg" viewBox="0 0 165.47 26.24"><defs><style>.cls-1{fill:#dce494;}.cls-2{fill:#231f20;}</style></defs><title>Asset 24</title><g id="Layer_2" data-name="Layer 2"><g id="Layer_1-2" data-name="Layer 1"><path class="cls-1" d="M13.15.18V15.25l1.47.05-.15,5.77h-1.7L12.62,17H2l-.15,4.05H.15L0,15.3l1.27-.05a19.64,19.64,0,0,0,1.65-3.7,24.84,24.84,0,0,0,.8-7.1V.18Zm-7.4,5A23,23,0,0,1,4.9,12a16.3,16.3,0,0,1-1.38,3.2H11V2H5.75Z"/><path class="cls-1" d="M18.37,11.37c.05,3,1.95,4.2,4.15,4.2A7.93,7.93,0,0,0,25.87,15l.38,1.57a9.83,9.83,0,0,1-4,.75c-3.72,0-5.95-2.45-5.95-6.1S18.42,4.65,22,4.65c3.95,0,5,3.47,5,5.7a7.09,7.09,0,0,1-.08,1ZM24.82,9.8c0-1.4-.57-3.58-3.05-3.58-2.22,0-3.2,2.05-3.37,3.58Z"/><path class="cls-1" d="M38.87,4.92V17H36.7V6.65H32.55V9.8c0,3.4-.33,5.67-1.9,6.7a3.57,3.57,0,0,1-2.4.75L28,15.52a2.64,2.64,0,0,0,1.2-.5c1.13-.82,1.25-2.52,1.25-5.22V4.92Z"/><path class="cls-1" d="M53.42,10.87c0,4.48-3.1,6.43-6,6.43-3.28,0-5.8-2.4-5.8-6.23,0-4.05,2.65-6.42,6-6.42S53.42,7.17,53.42,10.87Zm-9.6.13c0,2.65,1.53,4.65,3.68,4.65s3.67-2,3.67-4.7c0-2-1-4.65-3.62-4.65S43.82,8.7,43.82,11Z"/><path class="cls-1" d="M56.15,5.07A25.82,25.82,0,0,1,60,4.8c2,0,5.37.32,5.37,3a2.87,2.87,0,0,1-2.52,2.73v0c1.77.25,3.07,1.25,3.07,3,0,3.17-4,3.57-6.37,3.57-1.35,0-2.75-.1-3.4-.15Zm2.07,10.5a12.65,12.65,0,0,0,1.78.1c1.47,0,3.67-.35,3.67-2.1s-1.75-2.12-3.85-2.12h-1.6Zm0-5.57H59.9c1.62,0,3.3-.48,3.3-1.9,0-1.2-1.05-1.78-3.25-1.78a15.41,15.41,0,0,0-1.7.1Z"/><path class="cls-1" d="M79.65,10.87c0,4.48-3.1,6.43-6,6.43-3.27,0-5.8-2.4-5.8-6.23,0-4.05,2.65-6.42,6-6.42S79.65,7.17,79.65,10.87Zm-9.6.13c0,2.65,1.52,4.65,3.67,4.65s3.68-2,3.68-4.7c0-2-1-4.65-3.63-4.65S70.05,8.7,70.05,11Z"/><path class="cls-1" d="M84.45,4.92V10c0,1.93,0,3.13-.13,4.85l.08,0c.72-1.48,1.15-2.33,1.95-3.73l3.77-6.25H92.7V17H90.6V11.9c0-2,.05-3,.15-4.95h-.08c-.77,1.55-1.3,2.52-2,3.75C87.52,12.57,86.2,14.9,84.9,17H82.37V4.92ZM85.87,0c.08,1.07.6,1.9,1.6,1.9s1.58-.8,1.7-1.9h1.58a3,3,0,0,1-3.33,3.1c-2.2,0-3-1.38-3.15-3.1Z"/><path class="cls-1" d="M101.57,8.87c0-1.55,0-2.8-.1-3.95h2l.1,2.08h0a4.74,4.74,0,0,1,4.3-2.35c2.92,0,5.12,2.47,5.12,6.15,0,4.35-2.65,6.5-5.5,6.5a4.23,4.23,0,0,1-3.72-1.9h0V22h-2.18Zm2.18,3.23a5.06,5.06,0,0,0,.1.9,3.39,3.39,0,0,0,3.3,2.57c2.32,0,3.67-1.9,3.67-4.67,0-2.43-1.27-4.5-3.6-4.5a3.5,3.5,0,0,0-3.32,2.72,3.39,3.39,0,0,0-.15.9Z"/><path class="cls-1" d="M122.5,17l-.18-1.52h-.07a4.52,4.52,0,0,1-3.7,1.8,3.45,3.45,0,0,1-3.7-3.48c0-2.92,2.6-4.52,7.27-4.5V9.07a2.49,2.49,0,0,0-2.75-2.8,6,6,0,0,0-3.15.9l-.5-1.45a7.51,7.51,0,0,1,4-1.07c3.7,0,4.59,2.52,4.59,4.95v4.52a16,16,0,0,0,.21,2.9Zm-.33-6.17c-2.4,0-5.12.37-5.12,2.72a1.94,1.94,0,0,0,2.07,2.1,3,3,0,0,0,2.93-2,2.51,2.51,0,0,0,.12-.7Z"/><path class="cls-1" d="M129.87,4.92V10c0,1.93,0,3.13-.12,4.85l.07,0c.73-1.48,1.15-2.33,2-3.73l3.77-6.25h2.58V17H136V11.9c0-2,0-3,.15-4.95h-.08c-.77,1.55-1.3,2.52-2,3.75-1.15,1.87-2.48,4.2-3.78,6.32H127.8V4.92ZM131.3,0c.07,1.07.6,1.9,1.6,1.9s1.57-.8,1.7-1.9h1.57a3,3,0,0,1-3.32,3.1c-2.2,0-3-1.38-3.15-3.1Z"/><path class="cls-1" d="M152.64,10.87c0,4.48-3.1,6.43-6,6.43-3.27,0-5.8-2.4-5.8-6.23,0-4.05,2.65-6.42,6-6.42S152.64,7.17,152.64,10.87Zm-9.59.13c0,2.65,1.52,4.65,3.67,4.65s3.67-2,3.67-4.7c0-2-1-4.65-3.62-4.65S143.05,8.7,143.05,11Z"/><path class="cls-1" d="M157.55,4.92V9.8h5.74V4.92h2.18V17h-2.18V11.55h-5.74V17h-2.18V4.92Z"/><path class="cls-2" d="M73.66,12.71s1.19.87,1.89,1.47c0,.16-.19.24-.42.24H61.65L61.53,14h6.66a1.09,1.09,0,0,1-.21-.14,3.67,3.67,0,0,0-.8-1.71l.12-.09c2.6.17,2.58,1.52,1.83,1.94h3.5ZM73,15.84l1.71,1.31a1.05,1.05,0,0,1-.61.33v6.78c0,1.14-.26,1.8-2.21,2a2.24,2.24,0,0,0-.3-1.19,1.83,1.83,0,0,0-1.23-.55v-.21s1.35.1,1.68.1.32-.1.32-.3V17.18h-8v8.43c0,.19-.72.58-1.44.58h-.28V16l1.86.75h1.56a1.83,1.83,0,0,1-.3-.18,4.64,4.64,0,0,0-.86-2l.14-.09c2.67.39,2.59,1.87,1.81,2.25h2.6a20.46,20.46,0,0,0,.57-2.31l2.34.54c-.06.18-.23.31-.57.31a17.68,17.68,0,0,1-1.7,1.46h2.12Zm-2,8.07a2.65,2.65,0,0,1-1.3.38h-.27v-.74h-2v.54c0,.14-.69.48-1.33.48h-.23V20.21c-.36.24-.72.46-1,.64l-.18-.15a19.49,19.49,0,0,0,2-3.37l1.89,1a.52.52,0,0,1-.61.2,15,15,0,0,1-1.61,1.38l1.2.48h1.83l.72-.75.69.52a6.85,6.85,0,0,0-1.78-2.47l.13-.11c4.13.56,3.17,3.42,1.67,2.6l.76.57A.77.77,0,0,1,71,21Zm-1.57-.79V20.81h-2v2.31Z"/><path class="cls-2" d="M88.74,23.31s1.18,1,1.86,1.67c0,.16-.21.24-.44.24H76.71l-.12-.44H81V12.38l2.22.21c0,.21-.14.34-.48.39v11.8h1.63V12.39l2.21.21c0,.21-.12.35-.48.39v8.49A64.11,64.11,0,0,0,88,15.23l2.37.79a.56.56,0,0,1-.62.29,44,44,0,0,1-3.64,6.13v2.34h1.62Zm-11.25-8c4.53,4,3.33,8.22,1.62,6.58a20.57,20.57,0,0,0-1.83-6.51Z"/><path class="cls-2" d="M103.72,23.49s1.14.93,1.82,1.56c-.05.17-.21.24-.44.24H94.27l-.54.9-1.81-1.05a2.42,2.42,0,0,1,.46-.43v-12l2,.75h8.1l.87-1.2s1,.82,1.59,1.38a.38.38,0,0,1-.41.24H94.15v11h8.58Zm-.33-7.83c-.09.17-.3.27-.66.21a17.52,17.52,0,0,1-1.83,3c3.11,2.73,2.22,4.9.57,3.94a18.53,18.53,0,0,0-1.77-2.55A15.37,15.37,0,0,1,95,23.48l-.14-.17a18,18,0,0,0,3.84-4.15c-1.09-1.22-2.29-2.4-3.31-3.33l.18-.12a23.46,23.46,0,0,1,4,2.11,20.27,20.27,0,0,0,1.49-3.24Z"/></g></g></svg>