<svg xmlns="http://www.w3.org/2000/svg" viewBox="0 0 131.45 21.86"><defs><style>.cls-1{fill:#f2d384;}.cls-2{fill:#231f20;}</style></defs><title>Asset 23</title><g id="Layer_2" data-name="Layer 2"><g id="Layer_1-2" data-name="Layer 1"><path class="cls-1" d="M0,.69A25.82,25.82,0,0,1,3.85.42c2,0,5.37.32,5.37,3A2.87,2.87,0,0,1,6.7,6.17v0c1.77.25,3.07,1.25,3.07,3,0,3.17-4,3.57-6.37,3.57-1.35,0-2.75-.1-3.4-.15Zm2.07,10.5a12.65,12.65,0,0,0,1.78.1c1.47,0,3.67-.35,3.67-2.1S5.77,7.07,3.67,7.07H2.07Zm0-5.57H3.75c1.62,0,3.3-.48,3.3-1.9,0-1.2-1-1.78-3.25-1.78A15.41,15.41,0,0,0,2.1,2Z"/><path class="cls-1" d="M14.72.54V5.79h.53L19.8.54h2.67L17.2,6c1.95.2,3.12,1.5,4.07,3.67a26,26,0,0,0,1.3,3h-2.3a16.28,16.28,0,0,1-1.12-2.47c-.83-1.95-1.95-2.85-4-2.85h-.43v5.32H12.55V.54Z"/><path class="cls-1" d="M25.5.54l2.65,7.15c.27.8.57,1.75.77,2.48h0c.23-.73.48-1.65.78-2.53l2.4-7.1h2.32l-3.3,8.63c-1.57,4.14-2.65,6.27-4.15,7.57a5.91,5.91,0,0,1-2.7,1.42l-.55-1.85a5.72,5.72,0,0,0,1.93-1.07,6.76,6.76,0,0,0,1.85-2.45,1.56,1.56,0,0,0,.17-.53,1.9,1.9,0,0,0-.15-.57L23.1.54Z"/><path class="cls-1" d="M44.87,12.19a8.08,8.08,0,0,1-3.47.7c-3.65,0-6-2.47-6-6.17A6.14,6.14,0,0,1,41.87.29a7.34,7.34,0,0,1,3.05.63l-.5,1.7A5.08,5.08,0,0,0,41.87,2C39.1,2,37.6,4.09,37.6,6.62c0,2.8,1.8,4.52,4.2,4.52a6.34,6.34,0,0,0,2.7-.6Z"/><path class="cls-1" d="M49.57.54V5.42h5.75V.54H57.5v12.1H55.32V7.17H49.57v5.47H47.4V.54Z"/><path class="cls-1" d="M67.8,12.64l-.18-1.52h-.07a4.55,4.55,0,0,1-3.7,1.8,3.45,3.45,0,0,1-3.7-3.48c0-2.92,2.6-4.52,7.27-4.5V4.69a2.49,2.49,0,0,0-2.75-2.8,6,6,0,0,0-3.15.9L61,1.34A7.51,7.51,0,0,1,65,.27c3.7,0,4.6,2.52,4.6,4.95V9.74a17.07,17.07,0,0,0,.2,2.9Zm-.33-6.17c-2.4,0-5.12.37-5.12,2.72a1.94,1.94,0,0,0,2.07,2.1,3,3,0,0,0,2.93-2,2.51,2.51,0,0,0,.12-.7Z"/><path class="cls-1" d="M82.15,12.64H80V7.57H78.35a2.89,2.89,0,0,0-2,.67c-.9.73-1.22,2.23-1.7,3.4a7.17,7.17,0,0,1-.5,1H71.77a7.39,7.39,0,0,0,.75-1.37c.53-1.18.83-2.75,1.9-3.65a2.88,2.88,0,0,1,1.38-.7V6.84c-1.58-.17-3.2-1.15-3.2-3a2.89,2.89,0,0,1,1.6-2.62,8.4,8.4,0,0,1,4-.83,34.86,34.86,0,0,1,3.9.25ZM80,2a13.06,13.06,0,0,0-1.82-.12c-1.5,0-3.28.42-3.28,2.1s1.93,2.1,3.23,2.1H80Z"/><path class="cls-1" d="M92.25,7c0,3,2,4.2,4.15,4.2a7.82,7.82,0,0,0,3.35-.63l.37,1.58a9.77,9.77,0,0,1-4,.75c-3.73,0-5.95-2.45-5.95-6.1S92.3.27,95.82.27c4,0,5,3.47,5,5.7a9.49,9.49,0,0,1-.07,1ZM98.7,5.42c0-1.4-.58-3.58-3-3.58-2.23,0-3.2,2.05-3.38,3.58Z"/><path class="cls-1" d="M113,.54V11l1.25,0-.13,5.47H112.4l-.1-3.85h-8.38l-.1,3.85H102.1L102,11l1,0a9.11,9.11,0,0,0,1.2-2.47,15.85,15.85,0,0,0,.7-4.83V.54Zm-6.13,3.68a16,16,0,0,1-.62,4.5,11.14,11.14,0,0,1-1,2.24h5.58V2.22h-4Z"/><path class="cls-1" d="M123.57,12.64l-.17-1.52h-.08a4.52,4.52,0,0,1-3.7,1.8,3.45,3.45,0,0,1-3.7-3.48c0-2.92,2.6-4.52,7.28-4.5V4.69a2.5,2.5,0,0,0-2.75-2.8,6,6,0,0,0-3.15.9l-.5-1.45a7.5,7.5,0,0,1,4-1.07c3.7,0,4.6,2.52,4.6,4.95V9.74a17.07,17.07,0,0,0,.2,2.9Zm-.32-6.17c-2.4,0-5.13.37-5.13,2.72a2,2,0,0,0,2.08,2.1,3,3,0,0,0,2.92-2,2.21,2.21,0,0,0,.13-.7Z"/><path class="cls-1" d="M128.5,11.68c0-.67.62-1.16,1.47-1.16s1.48.49,1.48,1.16-.58,1.17-1.48,1.17S128.5,12.34,128.5,11.68ZM129.12,9l-.35-9h2.4l-.35,9Z"/><path class="cls-2" d="M56.28,17.57c1.2,1.68,3.6,2.23,6.29,2.4l0,.16a2,2,0,0,0-1.29,1.67c-2.67-.66-4.39-1.74-5.31-4.23h-.13c-.53,2-2,3.43-7.43,4.29l-.09-.24c3.78-1.11,5.06-2.37,5.52-4.05H48.63l-.12-.42h5.4a11.74,11.74,0,0,0,.18-1.86l2.52.18c0,.21-.19.37-.52.4-.05.45-.11.87-.18,1.28h3.7l1-1.25s1.11.84,1.8,1.43c0,.16-.21.24-.43.24Zm-1.93-2.93v-1.8h-4l-.12-.43h4.1V10.73H49.49l-.12-.44h7a18.47,18.47,0,0,0,.84-2.62l2.29.69c-.06.19-.24.3-.57.27a14.8,14.8,0,0,1-2.1,1.66H59.1l1-1.2s1.07.81,1.73,1.4c0,.16-.2.24-.42.24H56.18v1.68h2.13l.9-1.11s1,.75,1.66,1.3c0,.17-.19.24-.42.24H56.18v1.8h3.21l1-1.26s1.1.86,1.76,1.46c0,.15-.21.22-.42.22H49l-.12-.42ZM51.72,7.82c4,.28,2.49,3.33.92,2.2a4.22,4.22,0,0,0-1-2.11Z"/><path class="cls-2" d="M71.9,8.45c-.05.19-.23.28-.74.33,1.4,1.27,4.19,2,6.3,2.28v.22A2.13,2.13,0,0,0,76.13,13a10,10,0,0,1-5.21-4,8.88,8.88,0,0,1-1.38,1.35c3.35.54,1.71,3.09.29,1.93a3.19,3.19,0,0,0-.63-1.66,18.42,18.42,0,0,1-2.36,1.51l1.38.51h4.41l.8-.82L75.05,13a.8.8,0,0,1-.48.25v3.29l0-.06,1.91,1.32c-.09.13-.23.19-.57.12a14.46,14.46,0,0,1-2.28.76c3.19,1.28,3,3.23,1.5,3a24.77,24.77,0,0,0-6.24-3.78l.1-.18a17.81,17.81,0,0,1,3.84.7,18,18,0,0,0,1.5-1.6,2.84,2.84,0,0,1-1.29.4h-.31v-.51H68v3l3.19-.47,0,.18c-.9.45-2.48,1.25-4.41,2.07a1.25,1.25,0,0,1-.39.35l-1-1.85c.69-.34.81-.49.81-.81V12.36a18.74,18.74,0,0,1-2.85,1.19l-.09-.18c2.49-1.32,5.22-3.87,5.84-5.6ZM68,13v1.37h4.74V13Zm4.74,3.23V14.82H68v1.43Z"/><path class="cls-2" d="M79.29,19.49a1.25,1.25,0,0,1,1.25-1.25,1.25,1.25,0,1,1-1.25,1.25Zm2.46-9.11a23.4,23.4,0,0,1-.67,4.16l-.3,2.25h-.47L80,14.54a24,24,0,0,1-.66-4.16,1.21,1.21,0,1,1,2.41,0Z"/></g></g></svg>